<svg width="1200" height="630" viewBox="0 0 1200 630" fill="none" xmlns="http://www.w3.org/2000/svg">
  <rect width="1200" height="630" fill="#0E0E0E"/>
  <g stroke="#ffffff" stroke-opacity="0.05" stroke-width="1">
    <line x1="0" y1="105" x2="1200" y2="105"/>
    <line x1="0" y1="210" x2="1200" y2="210"/>
    <line x1="0" y1="315" x2="1200" y2="315"/>
    <line x1="0" y1="420" x2="1200" y2="420"/>
    <line x1="0" y1="525" x2="1200" y2="525"/>
    <line x1="200" y1="0" x2="200" y2="630"/>
    <line x1="400" y1="0" x2="400" y2="630"/>
    <line x1="600" y1="0" x2="600" y2="630"/>
    <line x1="800" y1="0" x2="800" y2="630"/>
    <line x1="1000" y1="0" x2="1000" y2="630"/>
  </g>
  <g transform="translate(150, 165) scale(2.5)">
    <rect x="8" y="8" width="112" height="112" rx="28" fill="#0E0E0E" stroke="#F3F3F3" stroke-width="6"/>
    <path d="M43 80C43 61.2223 58.2223 46 77 46V46C77 64.7777 61.7777 80 43 80V80Z" fill="#8FD3B6"/>
    <circle cx="43" cy="85" r="9" fill="#F3F3F3"/>
    <circle cx="85" cy="43" r="9" fill="#F3F3F3"/>
    <circle cx="85" cy="85" r="9" fill="#F3F3F3"/>
    <path d="M49 79L79 49" stroke="#F3F3F3" stroke-width="6" stroke-linecap="round"/>
    <path d="M52 85H76" stroke="#F3F3F3" stroke-width="6" stroke-linecap="round"/>
  </g>
  <text x="550" y="270" fill="#F3F3F3" font-family="system-ui, -apple-system, sans-serif" font-weight="bold" font-size="80" letter-spacing="2">MintShare</text>
  <text x="550" y="350" fill="#8FD3B6" font-family="system-ui, -apple-system, sans-serif" font-weight="600" font-size="36">Fast &amp; Free Peer-to-Peer File Transfer</text>
  <rect x="550" y="400" width="180" height="50" rx="25" fill="#8FD3B6"/>
  <text x="640" y="433" fill="#0E0E0E" font-family="system-ui, -apple-system, sans-serif" font-weight="bold" font-size="20" text-anchor="middle">100% Free</text>
  <rect x="750" y="400" width="180" height="50" rx="25" fill="#1A1A1A" stroke="#333333" stroke-width="2"/>
  <text x="840" y="433" fill="#F3F3F3" font-family="system-ui, -apple-system, sans-serif" font-weight="bold" font-size="20" text-anchor="middle">No Limits</text>
</svg>